<mxfile host="app.diagrams.net" modified="2023-04-06T20:44:27.190Z" agent="Mozilla/5.0 (X11; Ubuntu; Linux x86_64; rv:107.0) Gecko/20100101 Firefox/107.0" etag="xNw3EeUrl5YYxACgDnQj" version="21.1.4" type="device">
  <diagram name="Page-1" id="pIiC2xtuclAdQhsp789a">
    <mxGraphModel dx="989" dy="611" grid="1" gridSize="10" guides="1" tooltips="1" connect="1" arrows="1" fold="1" page="1" pageScale="1" pageWidth="850" pageHeight="1100" math="0" shadow="0">
      <root>
        <mxCell id="0" />
        <mxCell id="1" parent="0" />
        <mxCell id="mEQnwHxHjuf6ZbNcHZ4e-1" value="mobile app" style="rounded=1;whiteSpace=wrap;html=1;" vertex="1" parent="1">
          <mxGeometry x="369.97" y="10" width="120" height="60" as="geometry" />
        </mxCell>
        <mxCell id="mEQnwHxHjuf6ZbNcHZ4e-2" value="api gateway" style="rounded=1;whiteSpace=wrap;html=1;" vertex="1" parent="1">
          <mxGeometry x="369.97" y="140" width="120" height="60" as="geometry" />
        </mxCell>
        <mxCell id="mEQnwHxHjuf6ZbNcHZ4e-3" value="oauth" style="rounded=1;whiteSpace=wrap;html=1;" vertex="1" parent="1">
          <mxGeometry x="169.97" y="140" width="120" height="60" as="geometry" />
        </mxCell>
        <mxCell id="mEQnwHxHjuf6ZbNcHZ4e-4" value="users" style="shape=cylinder3;whiteSpace=wrap;html=1;boundedLbl=1;backgroundOutline=1;size=15;" vertex="1" parent="1">
          <mxGeometry x="199.97" y="210" width="60" height="60" as="geometry" />
        </mxCell>
        <mxCell id="mEQnwHxHjuf6ZbNcHZ4e-7" value="" style="shape=flexArrow;endArrow=classic;startArrow=classic;html=1;rounded=0;entryX=0;entryY=0.5;entryDx=0;entryDy=0;exitX=1;exitY=0.5;exitDx=0;exitDy=0;strokeWidth=1;startSize=5;endSize=5;width=7.428571428571429;endWidth=12.326530612244897;startWidth=12.326530612244897;" edge="1" parent="1" source="mEQnwHxHjuf6ZbNcHZ4e-3" target="mEQnwHxHjuf6ZbNcHZ4e-2">
          <mxGeometry width="100" height="100" relative="1" as="geometry">
            <mxPoint x="379.97" y="290" as="sourcePoint" />
            <mxPoint x="479.97" y="190" as="targetPoint" />
          </mxGeometry>
        </mxCell>
        <mxCell id="mEQnwHxHjuf6ZbNcHZ4e-9" value="" style="shape=flexArrow;endArrow=classic;startArrow=classic;html=1;rounded=0;entryX=0.5;entryY=1;entryDx=0;entryDy=0;strokeWidth=1;startSize=5;endSize=5;width=7.428571428571429;endWidth=12.326530612244897;startWidth=12.326530612244897;" edge="1" parent="1" source="mEQnwHxHjuf6ZbNcHZ4e-2" target="mEQnwHxHjuf6ZbNcHZ4e-1">
          <mxGeometry width="100" height="100" relative="1" as="geometry">
            <mxPoint x="299.97" y="180" as="sourcePoint" />
            <mxPoint x="379.97" y="180" as="targetPoint" />
          </mxGeometry>
        </mxCell>
        <mxCell id="mEQnwHxHjuf6ZbNcHZ4e-10" value="orders service" style="rounded=1;whiteSpace=wrap;html=1;" vertex="1" parent="1">
          <mxGeometry x="369.97" y="305" width="120" height="60" as="geometry" />
        </mxCell>
        <mxCell id="mEQnwHxHjuf6ZbNcHZ4e-11" value="" style="shape=flexArrow;endArrow=classic;startArrow=classic;html=1;rounded=0;entryX=0.5;entryY=0;entryDx=0;entryDy=0;strokeWidth=1;startSize=5;endSize=5;width=7.428571428571429;endWidth=12.326530612244897;startWidth=12.326530612244897;" edge="1" parent="1" target="mEQnwHxHjuf6ZbNcHZ4e-10">
          <mxGeometry width="100" height="100" relative="1" as="geometry">
            <mxPoint x="429.97" y="200" as="sourcePoint" />
            <mxPoint x="439.97" y="80" as="targetPoint" />
          </mxGeometry>
        </mxCell>
        <mxCell id="mEQnwHxHjuf6ZbNcHZ4e-12" value="orders" style="shape=cylinder3;whiteSpace=wrap;html=1;boundedLbl=1;backgroundOutline=1;size=15;" vertex="1" parent="1">
          <mxGeometry x="399.97" y="375" width="60" height="60" as="geometry" />
        </mxCell>
        <mxCell id="mEQnwHxHjuf6ZbNcHZ4e-19" style="edgeStyle=orthogonalEdgeStyle;rounded=0;orthogonalLoop=1;jettySize=auto;html=1;entryX=0.154;entryY=1.067;entryDx=0;entryDy=0;entryPerimeter=0;curved=1;" edge="1" parent="1" source="mEQnwHxHjuf6ZbNcHZ4e-13" target="mEQnwHxHjuf6ZbNcHZ4e-3">
          <mxGeometry relative="1" as="geometry">
            <Array as="points">
              <mxPoint x="190" y="335" />
              <mxPoint x="188" y="335" />
            </Array>
          </mxGeometry>
        </mxCell>
        <mxCell id="mEQnwHxHjuf6ZbNcHZ4e-35" value="pull metrics" style="edgeLabel;html=1;align=center;verticalAlign=middle;resizable=0;points=[];" vertex="1" connectable="0" parent="mEQnwHxHjuf6ZbNcHZ4e-19">
          <mxGeometry x="-0.0859" y="-1" relative="1" as="geometry">
            <mxPoint as="offset" />
          </mxGeometry>
        </mxCell>
        <mxCell id="mEQnwHxHjuf6ZbNcHZ4e-38" style="edgeStyle=orthogonalEdgeStyle;rounded=0;orthogonalLoop=1;jettySize=auto;html=1;entryX=0.135;entryY=1.032;entryDx=0;entryDy=0;entryPerimeter=0;curved=1;exitX=0.647;exitY=-0.005;exitDx=0;exitDy=0;exitPerimeter=0;" edge="1" parent="1" source="mEQnwHxHjuf6ZbNcHZ4e-13" target="mEQnwHxHjuf6ZbNcHZ4e-10">
          <mxGeometry relative="1" as="geometry">
            <Array as="points">
              <mxPoint x="330" y="470" />
              <mxPoint x="330" y="417" />
              <mxPoint x="386" y="417" />
            </Array>
          </mxGeometry>
        </mxCell>
        <mxCell id="mEQnwHxHjuf6ZbNcHZ4e-39" value="pull metrics" style="edgeLabel;html=1;align=center;verticalAlign=middle;resizable=0;points=[];" vertex="1" connectable="0" parent="mEQnwHxHjuf6ZbNcHZ4e-38">
          <mxGeometry x="0.1282" y="2" relative="1" as="geometry">
            <mxPoint as="offset" />
          </mxGeometry>
        </mxCell>
        <mxCell id="mEQnwHxHjuf6ZbNcHZ4e-13" value="prometheus" style="rounded=1;whiteSpace=wrap;html=1;" vertex="1" parent="1">
          <mxGeometry x="249.97" y="470" width="120" height="60" as="geometry" />
        </mxCell>
        <mxCell id="mEQnwHxHjuf6ZbNcHZ4e-14" value="tsdb" style="shape=cylinder3;whiteSpace=wrap;html=1;boundedLbl=1;backgroundOutline=1;size=15;" vertex="1" parent="1">
          <mxGeometry x="279.97" y="540" width="60" height="60" as="geometry" />
        </mxCell>
        <mxCell id="mEQnwHxHjuf6ZbNcHZ4e-21" style="edgeStyle=orthogonalEdgeStyle;rounded=0;orthogonalLoop=1;jettySize=auto;html=1;exitX=0.75;exitY=0;exitDx=0;exitDy=0;curved=1;" edge="1" parent="1" source="mEQnwHxHjuf6ZbNcHZ4e-20">
          <mxGeometry relative="1" as="geometry">
            <mxPoint x="250" y="510" as="targetPoint" />
            <Array as="points">
              <mxPoint x="170" y="510" />
              <mxPoint x="250" y="510" />
            </Array>
          </mxGeometry>
        </mxCell>
        <mxCell id="mEQnwHxHjuf6ZbNcHZ4e-36" value="metrics query" style="edgeLabel;html=1;align=center;verticalAlign=middle;resizable=0;points=[];" vertex="1" connectable="0" parent="mEQnwHxHjuf6ZbNcHZ4e-21">
          <mxGeometry x="-0.4702" y="-9" relative="1" as="geometry">
            <mxPoint as="offset" />
          </mxGeometry>
        </mxCell>
        <mxCell id="mEQnwHxHjuf6ZbNcHZ4e-32" value="logs query" style="edgeStyle=orthogonalEdgeStyle;rounded=0;orthogonalLoop=1;jettySize=auto;html=1;exitX=0.25;exitY=0;exitDx=0;exitDy=0;curved=1;" edge="1" parent="1" source="mEQnwHxHjuf6ZbNcHZ4e-20" target="mEQnwHxHjuf6ZbNcHZ4e-23">
          <mxGeometry relative="1" as="geometry" />
        </mxCell>
        <mxCell id="mEQnwHxHjuf6ZbNcHZ4e-20" value="grafana" style="rounded=1;whiteSpace=wrap;html=1;" vertex="1" parent="1">
          <mxGeometry x="79.97000000000003" y="590" width="120" height="60" as="geometry" />
        </mxCell>
        <mxCell id="mEQnwHxHjuf6ZbNcHZ4e-23" value="loki" style="rounded=1;whiteSpace=wrap;html=1;" vertex="1" parent="1">
          <mxGeometry y="305" width="120" height="60" as="geometry" />
        </mxCell>
        <mxCell id="mEQnwHxHjuf6ZbNcHZ4e-28" style="edgeStyle=orthogonalEdgeStyle;rounded=0;orthogonalLoop=1;jettySize=auto;html=1;curved=1;" edge="1" parent="1" source="mEQnwHxHjuf6ZbNcHZ4e-26" target="mEQnwHxHjuf6ZbNcHZ4e-23">
          <mxGeometry relative="1" as="geometry" />
        </mxCell>
        <mxCell id="mEQnwHxHjuf6ZbNcHZ4e-33" value="push logs" style="edgeLabel;html=1;align=center;verticalAlign=middle;resizable=0;points=[];" vertex="1" connectable="0" parent="mEQnwHxHjuf6ZbNcHZ4e-28">
          <mxGeometry x="0.1464" y="19" relative="1" as="geometry">
            <mxPoint as="offset" />
          </mxGeometry>
        </mxCell>
        <mxCell id="mEQnwHxHjuf6ZbNcHZ4e-26" value="&lt;font style=&quot;font-size: 10px;&quot;&gt;promtail&lt;/font&gt;" style="ellipse;whiteSpace=wrap;html=1;" vertex="1" parent="1">
          <mxGeometry x="140" y="150" width="40" height="40" as="geometry" />
        </mxCell>
        <mxCell id="mEQnwHxHjuf6ZbNcHZ4e-31" style="edgeStyle=orthogonalEdgeStyle;rounded=0;orthogonalLoop=1;jettySize=auto;html=1;entryX=1;entryY=0.5;entryDx=0;entryDy=0;" edge="1" parent="1" source="mEQnwHxHjuf6ZbNcHZ4e-30" target="mEQnwHxHjuf6ZbNcHZ4e-23">
          <mxGeometry relative="1" as="geometry" />
        </mxCell>
        <mxCell id="mEQnwHxHjuf6ZbNcHZ4e-37" value="push logs" style="edgeLabel;html=1;align=center;verticalAlign=middle;resizable=0;points=[];" vertex="1" connectable="0" parent="mEQnwHxHjuf6ZbNcHZ4e-31">
          <mxGeometry x="-0.0792" y="-1" relative="1" as="geometry">
            <mxPoint as="offset" />
          </mxGeometry>
        </mxCell>
        <mxCell id="mEQnwHxHjuf6ZbNcHZ4e-30" value="&lt;font style=&quot;font-size: 10px;&quot;&gt;promtail&lt;/font&gt;" style="ellipse;whiteSpace=wrap;html=1;" vertex="1" parent="1">
          <mxGeometry x="339.97" y="315" width="40" height="40" as="geometry" />
        </mxCell>
      </root>
    </mxGraphModel>
  </diagram>
</mxfile>
